<svg width="22" height="22" viewBox="0 0 22 22" fill="none" xmlns="http://www.w3.org/2000/svg">
<path d="M1.00235 21H7.25162V20.2725M7.25162 20.2725C5.19952 19.4427 3.48069 17.9554 2.36452 16.0437C1.24834 14.132 0.797891 11.904 1.08377 9.70879C1.36964 7.51358 2.37568 5.47527 3.94423 3.91329C5.51277 2.35131 7.55516 1.35394 9.75132 1.0775M7.25162 20.2725V14.75M21 1H14.7507V1.72625M14.7507 1.72625C16.8016 2.55726 18.5191 4.04496 19.6343 5.95646C20.7495 7.86795 21.1994 10.0953 20.9136 12.2899C20.6278 14.4844 19.6225 16.5223 18.055 18.0843C16.4875 19.6464 14.4463 20.6446 12.251 20.9225M14.7507 1.72625L14.7507 7.25" stroke="#0AA36E" stroke-width="2" stroke-linecap="round" stroke-linejoin="round"/>
</svg>
